<mxfile host="Electron" agent="Mozilla/5.0 (Windows NT 10.0; Win64; x64) AppleWebKit/537.36 (KHTML, like Gecko) draw.io/24.7.5 Chrome/126.0.6478.183 Electron/31.3.0 Safari/537.36" version="24.7.5">
  <diagram name="第 1 页" id="BdXTuLaIhEluweqRxt9s">
    <mxGraphModel dx="1434" dy="836" grid="1" gridSize="10" guides="1" tooltips="1" connect="1" arrows="1" fold="1" page="1" pageScale="1" pageWidth="827" pageHeight="1169" math="0" shadow="0">
      <root>
        <mxCell id="0" />
        <mxCell id="1" parent="0" />
        <mxCell id="l4FoF063hQM2DX1FlUyc-1" value="" style="ellipse;whiteSpace=wrap;html=1;aspect=fixed;" vertex="1" parent="1">
          <mxGeometry x="200" y="480" width="40" height="40" as="geometry" />
        </mxCell>
        <mxCell id="l4FoF063hQM2DX1FlUyc-2" value="" style="ellipse;whiteSpace=wrap;html=1;aspect=fixed;" vertex="1" parent="1">
          <mxGeometry x="240" y="480" width="40" height="40" as="geometry" />
        </mxCell>
        <mxCell id="l4FoF063hQM2DX1FlUyc-3" value="" style="ellipse;whiteSpace=wrap;html=1;aspect=fixed;" vertex="1" parent="1">
          <mxGeometry x="280" y="400" width="40" height="40" as="geometry" />
        </mxCell>
        <mxCell id="l4FoF063hQM2DX1FlUyc-4" value="" style="ellipse;whiteSpace=wrap;html=1;aspect=fixed;" vertex="1" parent="1">
          <mxGeometry x="400" y="280" width="40" height="40" as="geometry" />
        </mxCell>
        <mxCell id="l4FoF063hQM2DX1FlUyc-5" value="" style="ellipse;whiteSpace=wrap;html=1;aspect=fixed;" vertex="1" parent="1">
          <mxGeometry x="320" y="440" width="40" height="40" as="geometry" />
        </mxCell>
        <mxCell id="l4FoF063hQM2DX1FlUyc-6" value="" style="ellipse;whiteSpace=wrap;html=1;aspect=fixed;" vertex="1" parent="1">
          <mxGeometry x="360" y="360" width="40" height="40" as="geometry" />
        </mxCell>
        <mxCell id="l4FoF063hQM2DX1FlUyc-7" value="" style="ellipse;whiteSpace=wrap;html=1;aspect=fixed;" vertex="1" parent="1">
          <mxGeometry x="440" y="440" width="40" height="40" as="geometry" />
        </mxCell>
        <mxCell id="l4FoF063hQM2DX1FlUyc-8" value="" style="ellipse;whiteSpace=wrap;html=1;aspect=fixed;" vertex="1" parent="1">
          <mxGeometry x="480" y="200" width="40" height="40" as="geometry" />
        </mxCell>
        <mxCell id="l4FoF063hQM2DX1FlUyc-9" value="" style="endArrow=classic;html=1;rounded=0;entryX=0;entryY=1;entryDx=0;entryDy=0;" edge="1" parent="1" source="l4FoF063hQM2DX1FlUyc-1" target="l4FoF063hQM2DX1FlUyc-3">
          <mxGeometry width="50" height="50" relative="1" as="geometry">
            <mxPoint x="520" y="410" as="sourcePoint" />
            <mxPoint x="610" y="400" as="targetPoint" />
          </mxGeometry>
        </mxCell>
        <mxCell id="l4FoF063hQM2DX1FlUyc-10" value="" style="endArrow=classic;html=1;rounded=0;" edge="1" parent="1" source="l4FoF063hQM2DX1FlUyc-2" target="l4FoF063hQM2DX1FlUyc-3">
          <mxGeometry width="50" height="50" relative="1" as="geometry">
            <mxPoint x="560" y="450" as="sourcePoint" />
            <mxPoint x="610" y="400" as="targetPoint" />
          </mxGeometry>
        </mxCell>
        <mxCell id="l4FoF063hQM2DX1FlUyc-11" value="" style="endArrow=classic;html=1;rounded=0;" edge="1" parent="1" source="l4FoF063hQM2DX1FlUyc-3" target="l4FoF063hQM2DX1FlUyc-6">
          <mxGeometry width="50" height="50" relative="1" as="geometry">
            <mxPoint x="560" y="450" as="sourcePoint" />
            <mxPoint x="610" y="400" as="targetPoint" />
          </mxGeometry>
        </mxCell>
        <mxCell id="l4FoF063hQM2DX1FlUyc-12" value="" style="endArrow=classic;html=1;rounded=0;" edge="1" parent="1" source="l4FoF063hQM2DX1FlUyc-5" target="l4FoF063hQM2DX1FlUyc-6">
          <mxGeometry width="50" height="50" relative="1" as="geometry">
            <mxPoint x="560" y="450" as="sourcePoint" />
            <mxPoint x="610" y="400" as="targetPoint" />
          </mxGeometry>
        </mxCell>
        <mxCell id="l4FoF063hQM2DX1FlUyc-13" value="" style="endArrow=classic;html=1;rounded=0;" edge="1" parent="1" source="l4FoF063hQM2DX1FlUyc-6" target="l4FoF063hQM2DX1FlUyc-4">
          <mxGeometry width="50" height="50" relative="1" as="geometry">
            <mxPoint x="560" y="450" as="sourcePoint" />
            <mxPoint x="610" y="400" as="targetPoint" />
          </mxGeometry>
        </mxCell>
        <mxCell id="l4FoF063hQM2DX1FlUyc-14" value="" style="endArrow=classic;html=1;rounded=0;" edge="1" parent="1" source="l4FoF063hQM2DX1FlUyc-4" target="l4FoF063hQM2DX1FlUyc-8">
          <mxGeometry width="50" height="50" relative="1" as="geometry">
            <mxPoint x="560" y="450" as="sourcePoint" />
            <mxPoint x="610" y="400" as="targetPoint" />
          </mxGeometry>
        </mxCell>
        <mxCell id="l4FoF063hQM2DX1FlUyc-15" value="" style="endArrow=classic;html=1;rounded=0;entryX=0.35;entryY=0.925;entryDx=0;entryDy=0;entryPerimeter=0;" edge="1" parent="1" source="l4FoF063hQM2DX1FlUyc-7" target="l4FoF063hQM2DX1FlUyc-8">
          <mxGeometry width="50" height="50" relative="1" as="geometry">
            <mxPoint x="560" y="450" as="sourcePoint" />
            <mxPoint x="610" y="400" as="targetPoint" />
          </mxGeometry>
        </mxCell>
        <mxCell id="l4FoF063hQM2DX1FlUyc-16" value="1" style="text;html=1;align=center;verticalAlign=middle;resizable=0;points=[];autosize=1;strokeColor=none;fillColor=none;" vertex="1" parent="1">
          <mxGeometry x="205" y="528" width="30" height="30" as="geometry" />
        </mxCell>
        <mxCell id="l4FoF063hQM2DX1FlUyc-17" value="2" style="text;html=1;align=center;verticalAlign=middle;resizable=0;points=[];autosize=1;strokeColor=none;fillColor=none;" vertex="1" parent="1">
          <mxGeometry x="245" y="528" width="30" height="30" as="geometry" />
        </mxCell>
        <mxCell id="l4FoF063hQM2DX1FlUyc-18" value="3" style="text;html=1;align=center;verticalAlign=middle;resizable=0;points=[];autosize=1;strokeColor=none;fillColor=none;" vertex="1" parent="1">
          <mxGeometry x="285" y="528" width="30" height="30" as="geometry" />
        </mxCell>
        <mxCell id="l4FoF063hQM2DX1FlUyc-19" value="4" style="text;html=1;align=center;verticalAlign=middle;resizable=0;points=[];autosize=1;strokeColor=none;fillColor=none;" vertex="1" parent="1">
          <mxGeometry x="325" y="528" width="30" height="30" as="geometry" />
        </mxCell>
        <mxCell id="l4FoF063hQM2DX1FlUyc-20" value="5" style="text;html=1;align=center;verticalAlign=middle;resizable=0;points=[];autosize=1;strokeColor=none;fillColor=none;" vertex="1" parent="1">
          <mxGeometry x="365" y="528" width="30" height="30" as="geometry" />
        </mxCell>
        <mxCell id="l4FoF063hQM2DX1FlUyc-21" value="6" style="text;html=1;align=center;verticalAlign=middle;resizable=0;points=[];autosize=1;strokeColor=none;fillColor=none;" vertex="1" parent="1">
          <mxGeometry x="405" y="528" width="30" height="30" as="geometry" />
        </mxCell>
        <mxCell id="l4FoF063hQM2DX1FlUyc-22" value="7" style="text;html=1;align=center;verticalAlign=middle;resizable=0;points=[];autosize=1;strokeColor=none;fillColor=none;" vertex="1" parent="1">
          <mxGeometry x="445" y="528" width="30" height="30" as="geometry" />
        </mxCell>
        <mxCell id="l4FoF063hQM2DX1FlUyc-23" value="8" style="text;html=1;align=center;verticalAlign=middle;resizable=0;points=[];autosize=1;strokeColor=none;fillColor=none;" vertex="1" parent="1">
          <mxGeometry x="485" y="528" width="30" height="30" as="geometry" />
        </mxCell>
      </root>
    </mxGraphModel>
  </diagram>
</mxfile>
